<mxfile host="65bd71144e">
    <diagram id="HIP3nbAZw_EuaXWnEj3U" name="Page-1">
        <mxGraphModel dx="532" dy="428" grid="1" gridSize="10" guides="1" tooltips="1" connect="1" arrows="1" fold="1" page="1" pageScale="1" pageWidth="850" pageHeight="1100" math="0" shadow="0">
            <root>
                <mxCell id="0"/>
                <mxCell id="1" parent="0"/>
                <mxCell id="7" value="http://ics2o.mths.ca" style="swimlane;whiteSpace=wrap;html=1;" parent="1" vertex="1">
                    <mxGeometry x="29" y="40" width="760" height="480" as="geometry"/>
                </mxCell>
                <mxCell id="8" value="" style="shape=image;imageAspect=0;aspect=fixed;verticalLabelPosition=bottom;verticalAlign=top;image=data:image/png,iVBORw0KGgoAAAANSUhEUgAAAlgAAAGrCAYAAAAciOn2AAAABHNCSVQICAgIfAhkiAAAAAlwSFlzAABU1AAAVNQBOrEDTgAAABl0RVh0U29mdHdhcmUAd3d3Lmlua3NjYXBlLm9yZ5vuPBoAACAASURBVHic7N13nBRF+sfxzzO77JIzCEoUlWxEODCBGDAhGDAg5hzvDD/PcG6tOZzhzCfnGc+ECqYTFc+EASNiABUwoiJBQJC0O/X7oxcFmTzdXT0zz/v1mtfCdnfVAyw7362urhJrLUoppZRTYpoCVwD7A7OA99d6fYw1tQ6rUyprogFLKaWUU2IqgWeB7ZOcMQcYC9yJNXNDq0upPGjAUkop5ZaYk4EbMjhzFfA4cBHWfBVoTUrlSQOWUkopd8TUA2YAHbO4ajFwItY8FkxRSuUv5roApZRSJW002YUrgGbAg4i5pe72olKRU+66AKWUUiXtnDyuPQ6oqPuoVKToCJZSSik3xGwGbJpnK0fUzeFSKlI0YCmllHJlO5/a+TtiBvrUllK+0ICllFLKlWTLMmSrHDA+taWULzRgKaWUcsWvESyAIYjZwsf2lMqLBiyllFLhE9Me2NjnVv/sc3tK5UwDllJKKRe2CaDNEYjR9zUVCfqFqJRSyoVNAmizEdA9gHaVypoGLKWUUi50DajdrQNqV6msaMBSSinlgt/zr9bYKqB2lcqKBiyllFIuBBWwmgbUrlJZ0YCllFIqXN5E9M4BtV4TULtKZUUDllJKqbBthLeHYBA0YKlI0ICllFIqbBsF2LYGLBUJGrCUUkqFrVWAbf8YYNtKZUwDllJKqbC1DrDtjwJsW6mMlbsuQCmlnBFTDuwD9AP61L0A5gHfAZOAZ7HmazcFFi0NWKroacBSSpUeMfWBI4GzgU4JzuiIt2Dl8LrznwHOxZrPQ6qw2LUMqN3FWPNdQG0rlRW9RaiUKi1iNgE+BG4kcbhKZC9gKmIuCKyu0hLUCJYGYBUZGrCUUqVDTD/gFXLbpqUcqELMzbqhcN6CClhLAmpXqazpLUKlVGkQ0wt4AW9D4HwcD1QCx+VdU+kK6inCXwNqV4lpD9wObAA8jzc/8U2sWe20rgjTn8KUUsVPjAC3kn+4WuMIxFziU1ulKKgRrKUBtVvaxBwKTAX2wJub+Fe8gDUXMdcgprHL8qJKA5ZSqhQcAwzyuc1zEXOKz22WiqAmuS8LqN3SJKYtYsYBdwMtEpzRGDgD+Agxw8MsrRBowFJKlYK/BdTutYg5IKC2i5M3f00DVtSJGQl8AOybwdkbAY8i5jHE+DVKXPA0YCmlips396p9QK3HgLsRMzig9otRC4J779FbhH4Qcz7wMNAmyyv3Ae7Xh0A8+peglCp2OwfcfgXeT+9bBNxPsQhymxyd5J4vMQYwebSwF3C1L7UUOA1YSqlit00IfTQFnkJMlxD6KnRBBiy9RZgPMVcA5/vQ0umIOcGHdgqaBiyllPJHO+C/iMn2tkqpCTJg6S3CXIm5DjjLxxavQkxTH9srOBqwlFLFLsx1ejYBntCJvim1DbBtHcHKlhhBzC3AqT633BAY5XObBUUDllKq2IU9qtEPeBgx9ULut1BsEGDbNQG2XXy8yehjCW7R3CMDarcgaMBSShW7SQ763A0YW7fAqVpXkCNYujtJpsSU4a1vdXiAvfRHTM8A2480DVhKqWI3CVjsoN9DgSsc9Bt1QY5gacDK3L+Bg0PoJ8h/70jTgKWUKm7WrAImOOr9TMT82VHfUaUByzUx5wKHhNDT13ibq5ckDVhKqVJwEbDQUd9XISaMkYJCoQHLJTF7A9Uh9XYv1tiQ+oocDVhKqeJnzQ94e6a5IMCdiNnFUf9RE+QcrLIA2y583q4G9xDOe/9K4K4Q+oksDVhKqdJgzcPAfxz1Xg94BDFbO+o/GsRUAs0D7EFHsJIR0woYDzQJqccbsOa7kPqKJA1YSqlScgLwoqO+GwNPIqabo/6jIMjRK9CAlZiYcuBBoGtIPf4AXBVSX5GlAUspVTq8Ce8HAu87qqAt3mrvpfpkVdB/bg1YiV0HDA6xv/OwpuRX1deApZQqLd43/uHALEcVdMXbtzCsWzVREnTA0jlYfyTmOODEEHt8C2+0rORpwFJKlR5rfgL2BOY6qmBLYBxiKhz170rQtwg1YK1NzI7ADSH2uBw4vpSfHFybBiylVGmy5ktgH+AXRxXsDPy7xFZ7D3oEa0XA7RcOMZ2Bh/AesAjL+VgzI8T+Ik0DllKqdFkzFTgAWOWoglHA3x317UL7gNv/NeD2C4OYxnhPDLYOsdcXgFtD7C/yNGAppUqbNS/hbUobd1TBaYg5x1Hf4fFG6oYF3MuygNuPPu/v+W6gT4i9LgSO1VuD69KApZRS1jwKnOWwgssQM8Zh/2HYjuCXCdCABVV4D3GE6ZS6xXzVWjRgKaUUgDW3AFc6rOCfiAl6hMel/UPoY3kIfUSXmL2A80Pu9T9Y81jIfRYEDVhKKbWGNRfh3V5xwVsMUkx/R/0HbYsQ+ijdESwx7YGxIff6De62oIo8DVhKKbWuk4BnHPXdCJiAmM0c9R+k3iH0UZoBS0wM7weDMCe1x4GjsWZJiH0WFA1YSim1NmtqgUOBNx1V0Bpvtfegn7gLjxcAgtyDcI1SfYrwHGBIyH1ejzWvhtxnQdGApZRSf2TNcmAkMN1RBZ2ApxHTzFH//rImTjjrjZVewPJuKVeF3Os0B30WHA1YSimViDULgb2AOY4q6As8hphKR/37bXEIfZTWLUIxTYH7CXcPxpXAEXX7eqoUNGAppVQy1nyHt6XOz44q2BG4t+4WW6FbFHD7K4FS22D4FqBLyH2eizWfhNxnQSqG/7RKKRUca6YDI3C3BMBIwt1PLihBB6xZdbciS4OYw4GDQu71CazR1dozpAFLKaXSseZNvInvtY4qOBExYa9v5LegN9b+POD2o0PMpsA/Qu71G+D4kPssaBqwlFIqE9Y8g7eEgysGMUc57D9fTwXcfmkELDEVePOuGoXYaw0wGmtc3SovSBqwlFIqU9bcDVzksIJb61brLkRPEuwk9NIIWHAZsFXIfV6ENVNC7rPgacBSSqlsWHMl4GoeShnwAGIGOuo/d9YsA54OsIePAmw7GrytlE4PudeJwLUh91kUNGAppVT2zgQeddR3A2A8Yno66j8fDwbU7jxgakBtR4OYdsC/AAmx1x+AY7DGhthn0dCApZRS2fKeVjsSeMlRBS2BZxCzkaP+c/UC8GMA7U4q6hAgRoB/A21D7LUWGIM180Lss6howFJKqVx4Cy0eiLuRkw54IauFo/6zZ81qgnlQYGIAbUbJmcAuIfd5uW6Fkx8NWEoplStvo9t9gC8dVdALeBwx9R31nz3vacyxfrYITPKxvWgRsw1wcci9vow3mV7lQQOWUkrlw5q5eKu9/+Sogu2A/yCmzFH/uTgH+MKntp4u2ttYYprgLclQL8Re5+FthVM6i7YGRAOWUkrly5pZwHDcbdWyD3Czo76zZ82vwOHA6jxbequunWJ1E9AtxP4scBTW/BBin0VLA5ZSSvnBmveBUYCrTXCPQYzLNbqyY817wG7A9zm2MA0YXrf8Q/ERcyje7gFh+jvWPB9yn0VLA5ZSSvnFmknAMXgjAS5ciJjC2c7EmteBbfGeLszG3cBgrAl6f0M3xHTDG70K0ztAVch9FjUNWEop5SdrHsabY+TKjYgZ6rD/7Hjzp/YBqoGVac7+AjgIa47HGle3Y8NwM9AkxP6W4c27qgmxz6In1hbv0iFKKeWMmMtwF7R+ArYtuLk0YloCBwG74i1D0QL4FpgFjANeKOr1rgDEbAJ8QrgLip6MNf8Ksb+SoAFLKaWCIuZOYIyj3l/Bml0d9a1yJeYK4KwQe3wGa0aG2F/J0FuESikVnBOAZx31vRNiBjjqW+VCTAXhPhX5E97XqAqABiyllAqKN6flEGCKowqOctSvys2uQJsQ+zsBa1yt31b0NGAppVSQvDWfRgCfOej9QMSEuUilyk/jEPsaW7eqvgqIBiyllAqaNQvwVnvPdc2nXDUBNgi5T5W7dE9R+mUmbp90LQnlrgtQShUJOaEebNgRaAi1DbxPzngf+0it07qiwppvEbMX8BLQPMSeNwC+C7E/lbswFqmtwVuS4dcQ+ippGrCUUrmTS7tB7b5gh0D77YFG3oE12+L1motUPwa1D8Mlb1Hqjy1b8wliRuJNfA9rg+bWIfWj8hfGCNblWPNOCP2UPF2mQSmVPbm0G9RcCBwMkuEmw/FvIPYQ1D6MvfijQOuLOjHDgYf5PYkGaXOsmRFCPypfYtrirflVGVAPbwFDsEZHlUOgAUsplTmp3hg4H+zozINVInY6yMPAQ9iq2X6VV1DEHAPcFnAvK4AW+oZaQMTcARwZQMtLgX5YU5r/3xzQgKWUSk+qOwAXAYfh/9SCdyH+MFQ+gj2/sFYez5eYCwh2/7f3sGZggO0rv4npDXwQQMsnYM1dAbSrktCApZRKT8xYkCMC7iUO9jWwD0FsPLZqYcD9RYOYmwhuscdTsGZsQG2roIj5L7CLjy0+gTUH+tieyoAu06CUysT2IfQRA9kJYreB/RYx45Hqg5FzGoXQt0tnAOMDaPd74J4A2lXBOwvwazT3VSDoH45UAjqCpZRKTS5oDxVfO6zgV7DPeBPk7XPYqjAeZQ+XmErgaWAnH1vV0atCJmZj4HmgUx6tvAHsjTVL/SlKZUMDllIqNakeDjzquow6i4AJwEPwyStFtcaWmGbARGAbH1q7HWtO96Ed5ZKYjYDngM1yuHoKsCfW/OJvUSpTeotQKZVGvJXrCtbSHO8Jq4nQazZirkCqeziuyR/WLMbbi+5/ebb0GPDn/AtSzlkzB9gZuAVYkOFVX+Ct0r6Hhiu3dARLKZWaVJ0GsWtdl5HG2xC/B1Y+gr1yseti8uLdLrwN74nNbCzHeyLxRqyJ+16XcktMBbAH3nyqYXhP867CW5x0Jd7twNuBF7FG39gjQAOWUio1qToPYtWuy8iMXQ7yhBe2Yi9hqwo3aIjZBriE9E+TrcK7jfR/WDMr8LqUe2LKgLgGqWjTgKWUSk2q/gaxv7kuI3v2W7D3Qr17sRd+6bqanInpBQwA+gPd8QLVcrz5aC8Az9TdXlRKRYgGLKVUalK1F8SCWEYgJNaCvOaNav36OPaaZa4rUkoVPw1YSqnU5K/NoP5XIMWwHtVSsI+B3IOtmuy6mJLjzS/rDDQFmuBtDt647teN616NgBq8rV2WAr/UfVy21q/nAT/oLTIVZRqwlFLpSfXFwF9dl+EvO8u7hVhxL/aCOa6rKRpiYkAHvNuZm6716g50xL+n15cBM/Gemvu87vUF8AXWLPKpD6VypgFLKZWeVDcFJgFbui4lAHGwL4LcAzyJrVrhuqCCIqY+3hyxHfEWSt0WaOC0Jm8V+1eBV4BXsGam43pUCdKApZTKjFS3BPsUyLauSwnQIrAP191CfNd1MZG0fqAaAFQ6rSm971kTtrzApU9blhKpbgu1HaGsI8Q7Q6wjxDtBrCXeiGqy1+XYqgk5d6sBSymVMamOQfwQkItAurouJ1h2Osh9wAPYqu9dV+OUmHK8RVBHA/vgfoQqXzOBB4H/YM1s18Uon0h1a4gPAOkPsg3YrkAHkFy/Xn8FBmOrpuZUjgYspVTWpLoCOBNvXlZDx9UEre4Wor0fYuNL6haimH7AocAooK3jaoIyBXgAGIc1810XozIk1eVQ2xfKBgB/AjsApJv/HcW/g5qB2MvmZl2iBiylVM7kss6w+gaQvVyXEg47B6yB2H0FvYhpKt7+d0fgBatc9sArVKvxNlf+DzABa2oc16PWJtXt8NaCWxOmtiG8H+7eggW7Ym9cmc1FGrCUUvmT6r0hfgPEOrkuJSSfglyAvegZ14X4RkxP4CzgEKCe42pc+xa4Hvg31vzqupiSIyLwt14ggyE2sC5QdXZblL0Gay7I5goNWEopf0h1Q7DnAX8GifqkZ5/Y10COwFZ957qSnIkZiLc58F6AOK4mahYAtwK3Yk2mmy2rXMil3WH1YC9UsSNIG8cV/VEN0B9b9XGmF2jAUkr5S6o7AOeDPQKkBEZC7FyIj8Je/KbrSjImRoA9gbOB7RxXUwiWAf8Grseawg3TUSLVGwODvZfdCaS924Iy8haYncgwOGnAUkoFQy7tCrV/A3sISJnrcoJll4MMLYilHcT8CfgHsJUfrSX5uPYbi03wuUK1GrgFuBRrlrgupqDIZR2hZggwGOKDIdbBcUU5ip+Erb4zkzM1YCmlgiXVm4GtAg4AKeJbUPYHqDcosqvCi9kAuAwYQ3a3AuUPL8jvVuLagStOYQavH4HzsOY/rguJLLm8PawcXHfLb3ARLevyBrZqcCYnasBSSoVDLu0JNacChxbJvoYJ2Mew5hDXVazDW8PqJOAioFmmV+EttLh2qArSmqBVaE9mvgGcgTUfui7EOaluC+wItm6USjZ1XFFQamBpm0w2jdeApZQKl1Q3B46E+IkQ29h1OT6LQ9kW2As/c10IAGJ2xLsd2DuDs9cEKr/2CszV2iNbhfAGVQvcARis+dl1MaGR81tB5Q78No+KXk7rCVdrbFXaW8QasJRSbkh1DBgGnAx21+K5fWivxZrznJYgpgFwLXBsujP5fVuQKFoTtgphZOsn4Fismei6kMDIZZ1h1cEQ2x/sFsXzfzYrq4CmmayDpwFLKeWeXLop1JwMHA7SxHU5eZqErdrTWe9i+uAtltkz1VlEO1j9UaEELQvcCFyANatcF+MbuagvxG4A2cF1Ke7ZcVgzOpMzNWAppaJDzm0CDceAPQmku+tycvQjtsrNgqtiTgKuAuonO4PCClZ/VChB6wNgNNbMdF1IXqS6HOLnQuw8oMJ1OdFQOxR78WuZnKkBSykVPSICZijYU0D2oKACgV2MNeEukiimJTAWbyPmhGdQ2MHqjyze3Kcov4EtxZsAf5/rQnLibez+EMRGuC4lOuw/sOacTM8uD7IUpZTKifeT3yRgEnLZRlAzGuyYAhnVCndrFTHbAfcDGyU5o4ziCVZrCN77V5SDVmPgTsTsCpyENWmfOouYKzVcrc2+BJ/+NZsrdARLKVU45KJtoWwMMApo6bqcxOKfY6v7hNKVmAOBu0h++6ac0tj+poZohqw13gVGYM1PrgvJiFQdCDFd4+t3cWBzbNXn2VxUbD/VKKWKmb34HWzV6UAnkIPAPoP35hohktH8jPy7MafjjVwlCldrRnhKIVyB92eN8m4B/YBXEdPNdSFpiQjIha7LiBZ7VbbhCnQESylV6LwFDg+uu4W4hetygL2xVc8H1rq3j+CVwF+SnBEj2mEjSJbIBe51zANGYs3brgtJSqr3Bh53XUZErAAuxVZdncvFGrCUUsVDqjf3ghYHg2wQfgHx7+HHTbH/XB1I82IqgDuBg5KcUYzzrbIV5XlZ4M3RG401z7guJCGpehRiw12XEQGPAn/FVn2TawMasJRSxcd7vHx3YAzIXiCVIfW8H7bq6UBaFtMUGAcMSXQUL1yVyi3BTNQS3eUcaoHTsOZfrgtZj5jpING/lRkY+x7Ez8Ze/Hq+LWnAUkoVNzmvBVSMgtgYoH9wHQW4D6GYhsAzwHaJjqJPhCcT5ZAFcHKkQpZU1wcWUXqjoEvBPgbxe+GSyfgUjDRgKaVKh1RvVncL8TCQZMsa5MC+BMv2y2QD2KyJqYc3J2b3JGeU0mT2XEQ5ZMWBMVgzznUhAEh1J6CwF0fNmLUgrwD3wtLxQfzf1YCllCo93iKKQ+pGtUYADXNvzD4Dcgi2aoVf5f1GTAzvScEDkpyh4SozUV7GYTWwfyT2MJTTK6HlkuLdY9DWgrwJ8Wch9nA+86syoQFLKVXa5NwmUH8/L2zZHbJ4c5kPXAjmLr9uKaxfm7kNOCbJUZ3Qnp0oh6zlwF5YM9l1IYiZAxLuTgTBmg88D/wXVryAveLnsDrWgKWUUmvIZZ2hZgywH9jeicOW/QjsBIjdgq1aGFwt5grgrCRHNVxlL+pLOCwGdsWaqU6rkOpJwI5Oa8iLXQ3yAdgXQZ4F3sZWOblFrAFLKaUSkermEB8Isc4Q/wXKlkDsY+yFXwbftzkbuDzJ0VJe5ypfUQ9Z84AdsGa2swqkagzE7nTWf/Z+BTsF7GRgMsSmYKvC3a4qCQ1YSikVJWKG4j0xmGiESp8YzF8cb+J7VE3DC1nLnfQuZzaAZl8DzZ30n95CsG/W7ZgwGb7/ILB15/KkAUsppaJCzIbAO0CyOTD1QqymmEX5yUKAe7DmOGe9S/X/AZc6638ddg4w2RuhspPhkk8Dm/PoMw1YSikVBd5yDJOAgUnO0HlX/orkqMdajseau530LCJgxgN7ht95/HOI1d3uYzK26qvwa/CHBiyllIoCMdcAZyQ7it4a9FvUbxUux7tVOM1J794Cva9DbJPgOrHLgHfrlk6YAqvfwl6+ILj+wqUBSymlXBMzEng4xRm63lUworx0A8As4E9Ys9hJ717IGuvf3oT2S+AtsG9B7E345CPsI1EOuXnRgKWUUi6J6QZMAZomOwMdvQpK1EexACZgzSinFUjVKRC7AGidxVUrvH395E3gLVg1BXvZ3IAqjCQNWEop5ZKYF4CdUpyho1fBivooFsBhWPOI0wrk9EpotS9wNNitQFqsdXQVxGeDfPT76NT3H0b16b6waMBSSilXxBwOpNrsV9e8Cl7U18YC+BHYHGsWuS7kN3JuE2jYEfgV+MbVYp5RpgFLKaVcENMa+AholeIsXZYhHFFftgFgLNac4roIlTl95Fcppdy4itThSr8/h6cQ/q6PRUyyJTxUBOkIllJKhU3MYLwNaFPRuVfhKoS5WJ8A/bGmpOc2FYpCSO1KKVU8xFQCt6Q7Cw1XYSuE98PewF9cF6EyUwhfUEopVUz+DGya5hwNV+ErlL/zC+q2VFIRpwFLKaXCIqYJmY1A6Pfm8BXKqGED4GzXRaj09D+xUkqF52SgZZpzCuWNvhgVynviMYhp57oIlVqhfDEppVRhE9MY7/Zg2jODLkUlVSh/9w3QuViRpwFLKaXCcRKpl2VYQ78vu1NIo4cnIKaN6yJUcvofWSmlgiamEZmPXhXKG3yxKpS//4Zk9jWlHNGApZRSwTsByGS0oVDe3ItZIb0vnoSYdHP6lCOF9IWklFKFR0w5mc+X0YClstEY79aziiANWEopFaxhwAaui1AZK7SQewRiCq3mkqABSymlgnVEFufqG2U0FNK/QxdgJ9dFqPVpwFJKqaCIaQ3smc0VQZWislJo/w7ZhHgVEg1YSikVnIOBeq6LUEVvZN0uASpCNGAppVRwDnddgCoJDYEDXBeh1qUBSymlgiCmL7BlNlcEVYrKWiH+W+htwojRgKWUUsE4zHUBqqQMQkw310Wo32nAUkqpYOzhugBVcvRrLkI0YCmllN/EtAd6uC5DlZwhrgtQv9OApZRS/hvqugBVknZETJnrIpSn3HUBSmVDRBoDPYFewKZAJbCi7rV8rV/PAT601v7oqFRV2nbO4RrrexUqV4X6b9EM2Ap413UhSgOWijAREeBPwHC8p7F6AR3J4gkfEZkLTF3r9b619nP/q1VqHTqCpVzZGQ1YkSDWFmpQV8VKRPoBBwGjgE4BdPEl8Fjda4rV/wTKT2J6ANNyvFoXJY2GWiDuuogcvYg1Otk9AjRgqUgQkR54izIeBGwcYtffAY/jha3J1tpC/aaqAlQ3mtoGaIt3W7qi7lXvjx9PpN+wrWh36CpqqcXSiHo0oz5NqbTNqKQplTSv+31jKv7YVTmFuQZTsamhcG8TLgfaYs1K14WUOg1YyikR2Rk4C+/xYtdvLN8CNwFjrbWLHNeiQiAiZUA7oH2S14Z1HzcggCkVZQhNvNBlm1JJGxqyMS2kGy3ZhJZ0owWb0JKmVPrdtUpttesC8jQYa95wXUTBExMDugF96161eFNNPsSab9NergFLhU1E6uHt0XYWsIXjchJZCtwF/MNaO8t1McofItIB6MPv3yz74D0wUd9lXZloTcN1AteaALYZrWhFA9flFRuLN4JVyE7CmjsD7UFMI6AJv/9gHKv79R9f2X4+l2tirD+anOyV6ngjoCnewwLN8H6wapjkb2AhMAU4H2s+SfhXpAFLhUVEGgCnAWfgjQxEXRx4ArjeWvua62JUZkSkGb+HqDVBqi/Q3GVdQdmMVgykAwPpyCA60ps2xJwPBhe0ON5IRSG7AWv+z9cWxfwJbzuebfAeNmrla/uFaxVwFXAl1qwz8qkBS4VCRA4BriTPSettaEgv2tCbtvSmDRvQmOWsZjk1/MpqlrOan1nBR8zlQ+byPb/48weAF4FzrLUf+NWg8oeItAN2ALav+7gFJbzGX1MqGcBGvwWuAWxE8+gP0kVJIU9wX+NZrNnXl5bEDAcuwRvtVcl9AhyNNb+9R2jAUoESkQHA9cDAXK6voIxd2ZgD6c0ebEJbGmV1/Xx+5UPmMpUfeY6ZvMxXrM79e6cF7gcusNamvf+ugiEim+IFqTWhahO3FUWbAD1pwyA6sgebsDub0EgfVkylkCe4r/EV1myWVwtiKvB+KD7Vl4pKwzxgS6yZBxqwVEBEZEPgauBQspy8XkEZu9GNA+nFvvSgmY8TfH9mBU/zOeOZznPM4tfc5rKuAP4BXGGtXexbcSqhujl7ewGHADvhzYtQOWpAObvRjRH0YB+66xyudRXD/CvwRuCaY82KnK4WUw94FtjRz6JKxONYczBowFIBEJGRwL+Altlc14lm/Jk/cRRbhnJL41dWM5GZ3Ma7TGJ2Lk3MBwxwmy7v4D8R2QI4EhiNt0SCmzqAljSgPU1oT2OaUkk9yqioe9Ujttav1/18GTF+YSVLWMni3z6uWO/3S1nlZMikDGFHOjOSnoygBx1p6qCKSCmG24NrbIM1H+V0pZibgBP8LaekjMaacRqwlG/qJrFfB5yYzXVb056zGcSB9KLc0dSZj/iJG3iL/zCNldnPb30dOMZa+1kApZUUEWmNN+p5FN7q/YGqoIzutKILzWlH499C1JqP7epeFQS7vVscyxJWCdJJ9AAAIABJREFU8jWLmclCZrGQmXWvWfzMdywhHkIE68eGjKQHI+lJT1oH3l8EFcPtwTVGY824rK8SMxrvKWqVu/lAbw1Yyhci0gd4COid6TW7041z2Z4hdAmsrmz9xDJu5R1u411+Ylk2l67AG836u7W2sJ9AkvNbQWUboCVIC6htWffrNR8bAeVgy7yPlONNKi8HWetzax9f8/l4DGI1YFeDrAa7ejXxmvuZ1vxupm70Ot9uUEs8kJTdmWb0ZQP60va3j91pTb0CmA+/klq+5Od1Qtc05vIOc1ge0B2tfmzIqfTnYPpQGXDAjIhiuT24xt+w5qqsrvDWfZoBEfqmXLhGasBSeRORk/BGrjK6r9eLNlzLbgyL8NzkFdRwM29zGa+xiKymMbwHHGWtzW1oPkxS3QOkJ9juwGZgN/U+Soswup/HMq7lzbK7+SA2N7swm1I9YmxNe7ZhQ/rSls3ZgD60LcrFOmuIM5UfeYNvf3t9yxJf+2hNQ45la06iH51o5mvbEVNMtwcBrsGaC7K6QszeeDtbqPwZDVgqZ3Xbh1yDt2BoWi1pQDWDOZF+zm4FZmsBy7mEV7iVd7J5+nA1cDlwmbU2WitCS3Un4FCIHwqxHi5KWMQKruH1shuZElvKqrzba0wFA+nADnRmezoxgI1oWMJPyc3hl3UC1wf8kM+Ts78pQxhOd06lPzvT1YdKI6eYbg8C3I41p2d1hZgJwJ7BlFNyxmvAUjmpe7Lr38Bhac8FTqE/FzOEFgW6Hs9MFnIuk3ic6dlcNgU4MBJLOsj5raDiXmAXECerUP7CSm7grdh1vFmW5ajgOjagEdvT6bdAtSXtKNOFNZNaQQ2v8y0TmMEEZvCdDyNcvWjDqfRnDJuTYD/FQlRstwcBHsCaI7O6QswsvEVEVf5ma8BSWRORRsCjwLB057anMfcykl1C3b85OJP5hjOYyPv8kOklC4DR1trnAiwrPal+ADjARdfLWc1NvB27htfL5vNrTm00oJz96MmRbMnOdNWVyvPwLt8znhmMZzrTmZ9XW02p5Ci25GwG0aGwn0AsttuDAE9jzX4Zn+2te7WEEl6k12dLNGCprIhIC2Ai0D/duXuzGf9mX9ok3cqpMNViuZrXqeblTJ84jAOXAtXOlnOQ6rcJ4am8ta2khn/yXuwKXiv7kaU5tbEdHTmSLRlF76KcQ+Xa5yxgfN3I1hS+y/n+WCPqcRE78RcGFsRDA39QjKNXAC9jzW4Zny2mEzAzuHJKzhsasFTGRKQ+MAnYLtV5FZTxd3bjtPQZrKBNZz5HMYEpzMn0kknAodbaeQGWlZhUTwV6hdFVLXHu5IPYJbwS+44lWQ81daAph7MFR7Ilm2a3lJrKww8sZTzT+SfvMY25ObXRk9bczJ6FNker2OZerfE+1vwp47PF1AcWk+XC0Cqp2zRgqYyISAwYB6Qccm5KJY9zEEML6xtszmqxXM+b/I2XWJHZD8FzgFHW2jcCLm1dUvUxxPLbOiMDn7NAxvB42dvMyeqbtAD704vj2YahegvQuVf5mpt4mwnMoCaHO2ej6cvt7F0I87OKYWPnZGZiTXY/VIn5EtgomHJKzokasFRGROQm0uxJtSFN+C+j2aIEdzL5jAUcyQTe4rtMTl8JHGKtHR9wWb+TqhkQC3Qi3K28EzuH58uy3X5oBD24mCH0pW1AlalcfccSbudd7uA95mU5f25zNuApDon60g7ResrXX99jTZesrhDzNJD5bUWVzEqge8HdLFfhE5H/I0246klr3uSYkgxXAN1pxascxV/IaES+EhgnIkcFXNZaJLB1C37gF/bg/vJTeCarcDWMTXiH4xjPQRquIqoDTbmUnfmWM7mHEfRjw4yvncZc+jM2m1voYSvWkas1cnmiRFdw98ddWPO9BiyVkojsgrejelJb0o7XOSbqP6kGrh4xrmN3HmVUJhOyy4A7RSSjNcTyJ4H844zjk1hfbq03kZkZ39MbTBcmczTPMjqrN2zlTiVlHM4WvMNxvMkxHEKfjG7jzmUZg7mbh/g4hCqzYim+pwb/KJf1OJ6A6CbiArEKuBr0cUyVgog0x/uJJul30s4047+MLtj1rYKwPz15l+PZPP1ongB/F5HLAy1IRpWBbeJnk4tZwRgeLxvFuLIFLM/omoF0YBKH8xJHsJ0utVOw/kQHHmB/pnAsAzKYrrOCGg7hMa7jzRCqy1ixhyvIJWBZU4O3SLLKjQVOxJrvQAOWSu1moEOygy1pwLMcRnsah1hSYdiUlrzFsRyV2coI54nI7XUPEgSgdws/Fxf9H19KX24rv59pGdW7Ne15mkN5g2NK5uGHUtCPDXmTY7mT4bSlUdrzz+J57mJqCJWlFac0AlZua6NYMxb4j7+llIQ4cDLW3L/mExqwVEIiciAwOtnx+pTzBAfTk9YhVlVYGlDOv9mXW9krk9spJwAPikgQj135koBXUsNfmFi2C/eUf8vitH+gyrrlOt7lePZiUz9KUBEjwNFsxQxOZdcMFhM+jid5is+DLyy5Yn5q8I/yWbL/ZLx9VVVmFgP7Yc2da39SA5Zaj4i0A25Ldc59jGR7OoVUUWE7iX48wP6ZLMA4CniqbqV8P31PngspLmQ5O3NP+Q28FcvkueO+tOUdjucsBuqCCyWgBfV5lsPSrn1Xi+UgxjGZb0KqbB2W0glXkE/AsmY5sAtwf7pTS9w8oBrYDGv++8eDukyDWo+I/As4JtnxY9iKfzE8xIqKw0Rmsj+PkMGTdm8Be1prf/atc6maluvmzrP5Wfbg/rLPWZA2KwlwJgO5jKFUUpZLd6rAjeV9TuGZlBtMN6c+kzma3rQJq6xiXa09laux5sK8WxEzBrgYXR8LvK+hz4B3gdeBh+vCaEIasNQ6RKQr8DlQnuh4Z5rxESfTJPoLCEbSZL5hbx5gMSvTnfoxsJu1NuNND1OSqocglvm+ZHXeZo7swwPlP7Es7bkdaco9jGQIXXKpUBWRp/mckTyccpHSzWjF+5xAIwJbQWRtxbpaeyoXYs3VvrQkJoa3PtYRwDZ4YSuUfzi8f7c1T32u+RhP8LnVeE/wrUzxSnd8Jd7yFovwRgAX4d3+835vTVbz2jRgqXWIyL+BhOszCfAiR+gbaJ6m8iO7cz8ZhJYvgV2ttbPy7lSqjwZuz+aSp/hMDubR8kzWtjqUvtzCnjTXp0lVnbuZylE8kfKco9mKO4MfDS/FcAVwKNY8GkjLXuBqhze/M1ngWfNrm+BzycLSusetKeiHETRgqd+ISDdgBklGr45ja+5gn3CLKlKfs4BduY9vWJzu1B+BodbaT/PqUKpjwKtksEk3wARmxA7kkbJ026Q0pz63sRcH0yev8lRxuorX+SuTUp7zMAcwit5BlVCq4Qpga6yJ3AJkpUQnuau1XUiScFVBGX9jp5DLKV6b0YrXOZoe6Z/CbAdMFJH85j/Yqjis3BeYnO7UF5glBzMubbgaREc+4iQNVyqpc9mOP6fZ3eAEnubr9D9oZGvNnKtSDVdxYKbrIkqdBiwFgIi0JMWyDMewFR1pGmJFxa8DTXmVo9ia9ulO7YgXsprn1aG9fAEs2APio4HbwX4C6w5hT+YbGclD5SvTPGw1gh68yOF00K8JlcZ17M4Ikj9fsYgVjOYxav3LQqUergC+xpoVrosodXqLUAEgIscBdyQ6VkkZMzld30wDsoSV7MODvMrX6U59FW/ie9oZ8hmT81tB/UFQ22ciswYcyLi9lrIq4SjmGifSj1vYM6OtUpQCb5mPzbmNOfyS9Jzb2IsT6ZdvV6W0zlUqz2LNvq6LKHUasBQAIjIJGJro2Mlsyy3sGXJFpWU5NRzIIzzDF+lOfRQ4yFrr6+TPuvl3b0Hqe5aXMIQL2dHPrlWJeImv2IV7iScZWGpFA77g9Hy23aqlNFZoz8QNWPN/rosodXqLUCEiGwCDkx0/nm3CK6ZENaCcCRzMQekn+x4A/MPPvkWkPjCONOHqSnbRcKVyNoQunMOgpMcXsJyLeCmXptfcEtRw9bvPXBegNGApz4GQeFXInrRmi/SbFisflBPjPvZjl/RbjpwqIn7+dHojsFWqEy5kR85lOx+7VKXoEnZmmxRzDm/jHT7ip2yajKPzrRKZ7roApQFLefZOduAQ+oZZR8mrR4zHOSiTUHuFiOyab38icjhwXKpzzmAAlzAk366Uoh4xbmPvpLP3arGcwbOZNLUmWOl8q/UtR/cRjAQNWApg62QHDtFH8EPXhAqe5TA60SzVaTHgARHpmGs/ItKHNHtOHsNWXM+wXLtQaj3bsiFj2CLp8Zf4iieS3+FaO1jpqFVir2ONfw/CqJxpwCpxItIeEm8IthFN2ISWIVekANrTmIkclm7Cb2vgURHJet8iEakHPAQ0THbO9nTi9hSjDUrl6gqGptwi53Je++OnNFhlLqeJbMp/GrBU0h8lN9e5V071pDVPcEi6TZP7Azfk0PyfIfmM+nY05hEOpFy/RagAbEgTzmOHpMffZg4v8RVosMrF/1wXoDz63VNpwIqwHejE2PR7tZ0kImMybbNuVfiLkh0vJ8YjHEh7GmfapFJZO4uBdCH52rlX8JpFg1W2FgEfuC5CeTRgqaSz2PtqwIqEMWzOSekXYLxdRDLd0O06SJ6ermZXdqBTpuUplZP6lHN+ilGsF5gt7/OD3qHOzquFvkFyMdGApdomO5DBPnkqJDcwjAGk3I6wIXCviKRchV1EhgKjkh3fgU78Jc3ecUr55XC2oF2KkdKreF3fo7KjtwcjRL94VdI35FSTUFW4KihjHKNonXxOOnhPg56bpqm/JztQhnCzrtivQlRJWcrNoB/j09gsftZRrMxltMaFCocGLJU0RVUmz17KgY405UH2T7cH4EXJbhWKyE7AlskuPJX+Ou9Ohe5E+tGUyoTHarHczVR9n8rMa1jzpesi1O/0C1elCFgpn15TDuzCxlQn39UIoAK4S0QS/eOdkeyiDWhEtS4mqhxoRiUnpNiO636midV57pm4x3UBal0asJSOYBWY89iB/qnnY20LnLX2J0SkCyR/HPESdqZZklEEpYJ2GgOSjsx+xSKZzLd6mzC1pcDjrotQ69KApVYnO7AEXQw4isoQ7mZEuhHGahHpvtbvTyHJfpOtaMAYNvezRKWy0pGmDKFL0uP38aG+V6X2GNYsdV2EWpd+0aqvkx2YxcIw61BZ6ElrLk59S68+dQuQikgD4NhkJx7L1tTX0Url2OEpts95lE9jK6kJsZqCc6/rAtT6NGCp2ckOzOLnMOtQWTqLQemWbhgmIrsAQyDxio5lCCezbRDlKZWV/emV9Mnln1nB03yh71eJzcaa9fYWUu7pF6yalfyAjmBF2ZpbhWlGn64Bdkl2cB+6p9tUWqlQNKIe+9Mr6fH/8oXOw0rsbtcFqMQ0YKmkI1ifsSDMOlQOetCav7FjqlO2BE5KdvCIFLdllApbqtuELzBbA9b6lgC3uy5CJaYBSyUdwXqJL1lFbZi1qBycyUA60DTVKfUTfbIMYQhdgylKqRwMoQstEn+58i2LZQbzNWSt6xasWeS6CJWYBiz1DfBTogO/sIqXvR3tVYTVp5xL2Tnr67ZlI12aQUVKLE3o11GsdSwFbnRdhEpOHx0KiYhUAl2AdniLQVbgrUG19qsCb+f4hcACYH7dxwXW2qTLKeTDWmtF5Gng6ETHn+JzdqNbEF0rH41hc67jTaYxN+NrdmXjACtSKjdD6crjTE947HlmyWn0D7miyLoNa3QeR4RpwPKRiLQANgc2Brr+4dUeUu9xkqbtJXhh6xvgk7Vf1tr5+VXOEyQNWJ9xE3vk2bwKWgzhanZlGPdnfM0uGrBUBA1N8XX5Cl/FaojXluvNl1+pW4ZFRZcGrDyISEtgR2Bw3Wtz8ghRaTSte3UFdvpDHT8BHwPTgFeBV6y12TwC+ALef9j1dhL+msW8wGwd7SgAu9ONoXTlRTLbjqyv7juoIqg7rdiIJszhl/WO/cIq3maODKJjqe+dcwfWzHNdhEqt5H8MyIaINBaRfUXkBhGZincLbzzeHm9bEFy4SqctsDPwZ7ztEuaJyPsicq2I7C0iKWdAW2uX44WshC7jVV+LVcE5jx0yOq+SsqSTiZVyLdUo1ofMLfV5WMuA61wXodLTgJUBEdleRO4CfgQm4D5QpRMDtgLOBJ4CForIFBE5T0SSfecal6yxV/iaN/g2gDKV34bSlZ60Tntee5qEUI1SudmOjkmPfcxPUf2+G5ZLsOZH10Wo9DRgJSEi7UTk/0TkM+A14EigkduqclYG9AcuB2aJyNsicqaIrP1d7BFInqIuQxcKLhSnZDAJuD2NQ6hEqdykun39UWmPYE1DnxwsGBqw1iIiZSIyXESewAsbVwGbOS4rCNsC1wJfi8hkETkB7wnGa5Jd8F++4B2+D6s+lYfD2YImVKQ8R0ewVJT1oW3SY58wr1QDVhw4GWt0U8YCoZPc64jI/ngjPL4HqhjChjShK83pRDMaUI8KyqhHrO5j2W+/X04NC/iVBSxf7+Ov+L5SgwDb1b2uAh4CVkPiDcGO5gne43gqKPO7DuWjJlRwBFtyM28nPUf/DVWUNaGCzjTjaxavd2why/meX2RDmpTaRPexWJP8P7WKnJIPWCKyI3A1MCDftsoQtqI9O9CJ7rSmK83pSgs608yXN7RFrGA68/mUeXzCT3zKPD5lHt+yJO+2gWbACalO+JifqOJlrmCoH/2pAB3BFikD1iJWhFiNUtnrQ9uEAQtgGnPZsLRGYX8ELnTSs1R3AXYDBoOtBFkOdjnYbyD2GLbqUyd1FYCSDVgi0ge4Atg71zbKibE17RlMF3aiM9vTiaYBrozdnPoMpAMD6bDO539hFe/xPf/jS/7Hl7zNHFYTD6SGa3idEfRgABsF0r7yx9a0pzUNmc+vCY9rwFJR15cNeIYvEh77nAUyjE1KaQTrLKxJnDaDICJgToD46RDbZK0Da30UgL8h1Z9C/GFY/S/s5bp0xFrE2lL6GgUR6QBcDBxBDnPQmlHJwfRhBD3Ynk40TjPXxYVlrOY1vuYlvmISs3mfH3xtvzut+IATaVC6+bwgHMpjPMjHCY/1oDXTOSXkipTK3B28xwk8nfDYBewQv5SdS2Wj1AlYMyq03rwRqzvw1nbMgl0Och+UXY+9MOket6WkZN4hRUSAs/HCVVYLAAkwmC4czVbsT6/IB4tG1GMYmzAM7weP2fzMw3zCw3zMh1lspZLMZyzgSCbwIPsTi+xKFWo3uiUNWDqCpaKu9frrHv8m2chsEZoFHBdab1K1O8hDIDk8MS8NgOOh9likagLYa7EXv+N7jQWkJEawRGQD4F68+8gZ60QzjmRLjmRLutI8mOJCNoP5v4Wt6eS3w87pDOAfDPOpMuW37/mFjZKsR9iC+izk3JArUipzr/ENO3JXwmP70TP+GKOKfQRrObAD1kwLpTep3gTsmyDNfGz1VeA6MM9SCmHjD4o+YInIrsB9kPm+ID1ozRUMZTjdi3qE5n1+4Eam8BAfs5LcvlddyS6cy3Y+V6b8si1jeTfB8hp7sinPcKiDipTKzAzm05NbEh7bgU72VY4q9uUKjseau0PpSaobA5OBXgH18CnEr4UfH8L+0/fH4aOqaNfBEpFyEbkSeI4Mw1U7GnM7e/MxJzOCHkUdrsCbCH03I/iWM7mEITk9lfNXJnEvHwZQnfLDXexLwz+suiHAwfRxU5BSGWqTYl3n+SwPsRIn7gktXHkMwYUrvLZjd0K7L5DqM5HqlNu3FYuiHMESkS54azpltPRCYyo4m0GczSAaJV4CqiTUEOc+pnEBL/IDSzO+rpwYz3EYO9M1wOpUrh7hE67idWYwnxbU525GsItu3q0iLo6lHpcQZ/33qPY05nvOKtaRkGl4twbDSZEyqgx6fw0pVnf1nV0MMhbq3YQ939+nsCKk6AKWiBwA/AtvXaeUyolxDFtRzRA2KNhdcPy3lFVcxmtcz5sZ3zrsS1s+5KQiH/MrbBZYRS2VusioKhDlXExtgoDVgab2W/5SjLcI5+GFq9mh9SjVu0GSxzWDtwrsg1B+HfbC6Y5qCExR3SIUkTPw9tRLG642ZwOmciK3s7eGqz9oTAVXMJRPOYUR9Mjomo/4iS9YEHBlKh8CGq5UwajFJgxXULQ7ESwG9go1XAFgDwq3v3VUgBwBNVMRMx6p3t5hLb4rmoAlIucDN0D6QZST6McUjqU3bYIvrIBtTAvGcxCTODzl3mDgfcPrSouQKlNKFbuVJB+gqoz4Ujk5WA6MxJqp4XctEZjbIQKyF/A/xLyGVI9Aqgs+nxT8HwBARC4HLkt3Xgvq8xijuJW9qF98/0EDM5SuTOVEbmZPWtIg4Tlb0o56xfHlpJSKgBUpAlaRjWCtBg7CmsluurcRm3gsA4BHwL6HXLyv62ryUdDviOL5B3BeunMH0ZGpnMh+9AyhsuJThnAK2/IFp3Eq/df5BjeMTXiKQxxWp5QqNqnmfxbRre44cCTWTHRYQ0RHG6Q32HFI9VtIdUEuuBjRv9j0RCSGt5z/ManOiyH8le2pZjDlhZ0nI6ElDbiJPbiBYXzFIuawhB3orJPblVK+WsLKpMeKKGCdijXj3JYgUV+wdWvgSaT6Daitwl78iuuCMlWQiUNEyoH7SROuKiljPAdxGTtruPJZGUI3WrCjhiulVABmsjDpsbY0KvTH32uBk7DmX64LASa5LiBDg6DsBaR6InJRRkswuVZwqaMuXI2D1PekGlKPpziU4XQPpzCllFK++TzFU8mb0irESny3DNgfa+50XYin9jHXFWRpZyh7zXvq8KItXBeTSsEFLOA6YESqE5pQwbOMZlddTFEppQpS6oDVslBHsH4CdsGa/7ou5Df24o8gPtN1GdmTvSD2NlL1EFKd2XpCISuoOVgichRwWqpzmlOfiRzGADYKqSqllFJ+SxWwNqNVoAGrhjhfsFCmM09m8zMrqKGGODXEpe7jeq84ljY0YmNa2K40txvTgs40s/V+ny/2BbA31nwZZO05qsbbs7fAiIDsB4xAqu8AzsdWZb4NScAKZiV3EemPtzN3ZbJzWtOQFxjDlrQLrzCllFK+24jr+J5fEh6by9mr2/qwQPQqavmMBfIp89a8+JR5MpOFsirDXSxSKUPYiKa2LY0WT2f+M8tYNR2YBbxhrf0m7w78JOY2kJTzmqPPfg32eGz1S64rgQIJWCLSDngP2DDZOe1pzCQOp5cuHqqUUgXtU+bRm1sTHmtGJYv4a077EP7CSiYyK/Ykn8nbzJFZLJRkq8WHYDrwHDAReNVa63YHazmzATR7HQp9J3hrgTtAzsJWrXJZSeQDlohUAC8Bg5Kd05qGvMExbErL8ApTSikViGt4g//jhYTHdqObfY7DMt6HcA5L5Ek+lyeYEXuJr3wZmQrACuAV6gKXtdbNvnxS3Q7sWJDdnfTvr5dh+YHYKxe7KqAQAtYdwHHJjpcT43nGMIQu4RWllFIqMDtxN6/ydcJjN7JH7Wn0j6e6/kPmypN8Jk8wI/Y+P0i03+US+gZ4Evintfbj0HuXqpNArgRJvHVHwbCfwOo9sZf94KL3SAcsETkRuC3VOTcwjDMoiCUxlFJKpfEzK2jD1Uk3ep7F6TUb02K9gx/xk/yL92NP8Jl8zaJiWp7vZeBmYIK1NrzhN7l0U6i9BtgztD6D8TIwDFuVMpQHIbIBS0S2B/4HJN0n6XC24J7UKzYopZQqIPcxjcMZn/BYT9rYTzl5nduDLzBb/s4bZc8zq5hCVSLfAbcDY621P4XWq1QNBbkapG9offoufh62+tqwe41kwBKRpsCnkHythX5syGscpZs2K6VUkbDAltzONOYmPH4Og+JXs2vtamp5iE9if+eN2DTm+h6sKihjU1rSkzb0pDUdaEo5MepRRjmxul/H1vp1GbXE+YbFzObndV4L8H3u+irgEeBma+0UvxtPSKpjwJGAgYJ8TH8+fN8Z+8+cHo7IVVQD1k3AqcmOt6UR73E8HWgaYlVKKaWCNIEZjOThpMef5JCa6cyTm3g79h1L8g5WjamgV12I6kkbetCanrSmGy0p82kTsF9Y9VvYmsF8XmAWr/MtPk22fwc4z1r7oh+NpSXVjcGeA/y5AOdnHYCtejLMDiMXsOrWu3qTJKvM1yPGixzBDnQKtzCllFKB2oY7eJ/k85EbUY9l5DcI0ZlmDKc7+9KDHelMPQcbmixlFf/jSyYyk4nM5EsW5dvkP4GzrbXhLLIp1R2AS8Ee4i32WQjsFVhTFWaPkQpYdfsMvgsk3V/oFvbkZLYNryillFKBe4LPGMFDgbS9Ne3Zl+4Mp3skF6L+goW/ha2X+YpfcwuRXwFHWWtf9rW4VKS6H9hrQLYLrc+c2eux5twwe4xawDoHuDrZ8YPpw4PsH2JFSimlgjaXZWzF7fyAPwMwFZQxmC4MrwtVHQtoOskvrOIepnIzb/NZiu2CkrDAtcC51trwnpqTi0dC/GqQzqH1mb3bsVWnh9lhZAKWiHQBPgEaJjregvrM4FT82B5BKaVUNMSx7M79TGJ23m21pzGnMYAT6UcL6vtQnTsWeIFZ3MgUnmUm8exWnH8cGG2tXRFMdQlIdX2I/wXk/0Ci+EZ9N7bq+DA7jFLA+i+wR7Lj/2RvjmebECtSSikVtIt5hSpezquNPrTlLAZyKH2p+H1z5aIxi5+5hbf5Nx+wmJWZXjYZ2NdauzDA0tYn1RsCl0dwftYD2Kojw+wwEgFLRA6C5DffB9GRyRzt0zMdSimlomACMziAR5IuKprOULpyNoMYxiY+VxZNy1jNPUzlIl7KdPmH6cAwJxtLy0UDIHYdSFQmTf8VW3VdmB06D1gi0hzviyDhzMNyYnzACfShbbiFKaWUCswNvMVZPJ/trS/KiXEQvTmbQZGcsB6GH1nKcTzF03yeyemzgYGhLk66hojTp4kvAAAgAElEQVTARYeBXArSPvT+1/UnbNX7YXYY/vOp67uSFAuXncVADVdKKVUkaohzMs/wF57LKlw1poKzGcRszuB+9ivZcAXQjsY8xSHcyXCaUpnu9I2Bp0Qk4fzmQFlrsdX3gfQGrgab8f1Nny0CpobdqdMRLBHpDMyCxDfNu9CcTziZhsl3y1FKKVUgVlHLcB7kOWZldd1o+nINu9GexgFV9v/t3XecVNX5x/HP2YWlCivSFGl2wYqigBUrJhG7JpbEEo3+jGgsMTFR0cTYkqixK7aIYhQ1KNaoFEERRIqACii9IyBl2YXdfX5/3Nl1gbl3ys7cad/36zWvRc6ZO48C8t1zz31O7prNKk5kMN+xOtbUN4DTQz3PcGvur12h8h5wp4T7wfYmNjD0FgSZXsG6AJ9wBfAIP1W4EhHJE08wMaFwtT/tGM1FDOZ0hSsfu9GKT7iEHsS8A9cfeCCEkvzZn+dgA88CekH18JA+1MDdF85nbSnTK1hfA3tGGzuLbrzMWSFXJCIi6VDGZnblXyyNo9dVKY35C325gp4pO7Im361jE6fxEh8yJ9bUi83smTBqisndsj8U/Rnon74nDu1BbOB16bl2sIwFLOdcT2B81DHgW66mK6XhFiUiImmxjk3swN1sxr//pQMu5kDu5DjaRG+JKAHK2ExfnmM8i4KmrQP2N7OYSSw07pZ9ofg64HRIaQOzx2D677CXM3JbNJO3CM/3GzicTgpXIiJ5ZDtKOAL/Rt892YnPuJRB9Fe4SlJTGjKcc9mNVkHTtgP+7ZzL9BahH9ntX0Z6VHUCrgGm1vOKy6H6SuzWAZkKV5ChFazImYOLIPrjgWoqKiKSf95iFr/kdVbV6eHUhqb8jWO5hB66GZgi37KaPjzFcjYETfujmd0VVk0Jc7ccBEXnR8453AdoEPtN1V8DL0DZQ9i9gf/yYchUwPoJ8Fa0sRKKWcr1OX/MgYiIbGsVG/kbH7OJqsghzHvp//dpMIb5HMWzQa0wNgGHmNmUEMtKjru2CTTvAcU9wfaN/GSF1/bBVQAzgfexWxdmssytZSpgvQj8ItrYaezFa5wTckUiIiL55Y98yF2MCZoy2syOCqueQhP6PdjIfd+f+Y2fz34hViMiIpKfbuPoWA1Zj3TO9Q+rnkKTiU1uu+BtsttGKY35KXuEXI6IiEj+KaGYwZxOo+ADsO+O7IuWFMtEwNrbb6AvXWL9RhAREZE4dacNt9E3aMpewKUhlVNQsipgdaNNmHWIiIjkvWvoRZfg1kcDnXNqlZ9imQhY3fwGuutQZxERkZRqRDF3cEzQlLbAheFUUziyagWru1awREREUu4X7MtBwecVXuVcuo6rKUxZE7CKcexJ67BrERERyXsOuJcTgqbsAfQLp5rCEGrAcs51wOcJwl1ppQ3uIiIiadKXLvRm56ApA8KqpRCEvYLluz65l1avRERE0upqegUNn+icU6+kFAk7YFX6DRTrFCoREZG0OoO96RD9RhJ4dxIvD7GcvBZ2wKrwGyj3z14iIiKSAg0o4v/oGTTlTG12T42sCVgbFbBERETS7jIOCtrz3BE4JMRy8lbWBCytYImIiKRfa5pyIrsFTTkzrFrymQKWiIhIgTnTv+c3wBlh1ZHPwg5Y5X4D6/yzl4iIiKRQf/akxP82YVfn3EFh1pOPwg5YZfisYs1hDWsVskRERNKuJY04jl2CpvwsrFryVagBy8yqgcnRxqoxxrMozHJEREQKVozbhEeGVUe+ysRROeP8BxaGWYeIiEjB6he80b2Xc65hWLXko0wErE/9BxSwREREwrAjzdmdVn7DTYGDQywn72RVwPpMAUtERCQ0R9I5aPiIsOrIR6EHLDObDyyONvY9G5nKspArEhERKUwxApb2YdVDJlawIGAf1pN8EWYdIiIiBStGwFJH93rIVMD6wG/g30xhA5vDrEVERKQgdaGUtjTzG27jnPPdpCXBMhWwhuD1xNrGWioYzNSQyxERESlMe9E6aHjPsOrINxkJWGa2BnjRb/xRJoRYjYiISOHaWwErLTK1ggXwqN/AFJYxmnlh1iIiIlKQtIKVHhkLWGb2BfCZ3/g1vEsVFmJFIiIihUcBKz0yuYIF8IjfwCSW8qB//hIREZEU2Js2QcO7h1VHvsl0wHoZWOE3eAsjWMS6EMsREREpLB1pQTHOb7htmLXkk4wGLDMrB272G1/HJgbwTogViYiIFJYiHNvTxG9YbRqSlOkVLIAnCdiL9RpfMZyZIZYjIiJSWHbwD1gNnHMtwqwlX2Q8YJlZNXA5UOU35yKGMYc14RUlIiJSQHagafCwJCzjAQvAzCYDD/qNr6SM/gxhHZtCrEpERKQwtPJfwQIFrKRkRcCKuAVY5Dc4jeWcx6tUq3WDiIhISgXcIvSGJWFZE7DMbB1wVdCcN5nJTXwYUkUiIiKFoSWNg4YDByW6rAlYAGb2OnBv0Jy7GcuTfBFSRSIiIgVPt46SkFUBK+IPwNtBE37DmzzI+JDKERERyW8WnKEUsJKQdQEr8lThL4CvfOcAA3iHOxkTWl0iIiL5Ksb+5uqw6sgnWRewAMxsLdAfWB007yY+5M98FE5RIiIieSrGEpVWsJKQlQELwMxmA2cDlUHz7uBjfsvbVCpgi4iIJEW3CFMvawMWgJl9AJxPjJD1MBM4ln+zhPXhFCYiIpJHNgcvUmgFIwlZHbAAzOw/wBlARdC80cyjB48zinnhFCYiIpInVlLmO/YUpxwXYil5I+sDFoCZvQGcDAG/A4ClrOdYnuMexmo9U0REJE4r2OA71pcuV+NuPznEcvJCTgQsADP7H3AisDZoXhXGjXzAKQxhMevCKU5ERCSHLQ8IWG1oBtgzuL/uHl5FuS9nAhaAmY0BjgVWxZr7JjPpxsM8xudazRIREQmwwucGUWMa0JwSgBZQ5XtmsGwrpwIWgJl9DhwMsdu5/0AFV/AWR/A0M1iR/uJERERyzGaqWUN51LHWNK27RnEM7rZu4VSV+3IuYAGY2RygD/BkPPPHsoADeZw/8xHr2JTe4kRERHJI0Ab31jTd6mfsyvRWkz9yMmABmFmFmV0GXARsjDV/E1XcwcfswgPcxzgqqEp/kSIiIlluTkBPb2//1RZOSGsxeSRnA1YNM3sW6A3Mimf+Ssq4lvfYnX/xFJOo0g4tEREpYEFbaHZl+63/ktwJd1vOZ4cw5MV/JDObAuwP3APxLU0tYC2/5g268TAPMV63DkVEpCAFBazutN0qYLmGQPv0VpQf8iJgAZjZRjO7EegJTIr3fTP5nqt4hw78gyt5W5vhRUSkoEwPDFhtot3mKUlfNfnDmeXfLTLnXDFwHTAQaJLo+4+gEz9jD05gV/anPS7VBYqIiGSJjtzHQp8Wk8u5YfNW+7DKYOD25GN4SLG8DFg1nHO7AvfhdYFPSjuacTy7cgK7cjy70J7mqStQREQkg9ZSQUvuijrWmqas4Pebt/rpL7Bbe6W/stzXINMFpJOZfQv0d871Bv4GHJ3oNZaxgcFMZTBTAdiPdpwQCVwH0p4daKoVLhERyUnTWO471i3q7UEbm8Zy8kpeB6waZvYp0Nc5dwJe0Doo2WtNZRlTWcbf+QSAhhTRhIZUUU0l1VRhVFFNTzpwFYdwNt0poTg1/yIiIiIpNJp5vmPbbnCnEtwD6a0of+TNJvd4mNn7eJvgTwVGpuKam6lmLRVsYDMVVFFJNQaMZxEX8Do38kEqPkZERCTlRjLXd6wnO20dsF7Ebp2f1oLySEEFLADzDDOzvsB+wCDiaFSarKeZpBYQIiKSdSqpZiwLfMePpmvdgLUUGtyW/qryR8EFrLrM7EszuxTYA5iQjs9YSwXjWJiOS4uIiCTtcxaz3mcBoBMtrSulNQFrPVSdgv3JP43JNgo6YDnn+jjnngSm4906TLkdaMJRdE7HpUVERJIWdHvwKLpEwpX9APwcuz3u/pLiKYhN7ltzzvUFbgOOSPdn/Zoe2uQuIiJZJyhgHU0XA3sL3JXYrYvDqyp/FFTAcs4dAdxOEu0aol4PaEARm6mu/bkGFNGKJvRkJ27kcI6gUyo+SkREJGU2sDnwCcJSGl+JDXw8xJLyTl43Gq0R6YN1O3Bcfa5TSmMOpQO96UgvduZQOlBKY9ZQzloqaEEjWtJYfbFERCSrvcx0zmGo3/ACM9PqQD3l9QqWc64nXrDql8z7i3H0YzdOZ29605G9aB01PJXSmFIa16tWERGRsLzCjKDht8KqI5/lZcByznUEHgBOS+b9e9GaCzmAX7I/O+poHBERySNlbOZtZgVNeSWsWvJZXgWsyCHPVwF/gcSSUQsacQ7duYgD6c3OaalPREQk095mFmVsfcRgreXAqBDLyVt5E7CccwcBTwA9EnlfO5rxBw7nMg6iKQ3TU5yIiEiWGBp8e/A1M6sKq5Z8lvMByznXHPgr8FuIvx9CG5pyI4dzBQcrWImISEFYxyaGMzNoim4PpkhOByzn3KnAgxD/Pb3WNOUG+nAlh9BMwUpERArIs0xmg24PhiInA5Zzrg3e7cBT431PK5pwPX24ikNoTkn6ihMREclCBjzE+KApQ3V7MHVyLmA5544BBgM7xjO/AUX8jl7czFFsp2AlIiIF6j1mM5Pvg6Y8ElYthSBnAlbkCcGBwE3EeYZiL3bmcX7GfrRLZ2kiIiJZ7198FjQ8wsymh1VLIciJgBXpa/UicHg881vSiDs5jt9wEEXqqy4iIgVuFqt4l9lBUx4Kq5ZCkfUByznXH3gGaBXP/HPozv30o70ahIqIiADwdz4h4GC8BcCw0IopEFkbsJxzjYB7gAHxzN+F7XmEn3Iiu6a3MBERkRzyBt/wBBODpjyqze2pl5WHPTvndsXrxXFgPPMv52D+yYk0yd68KCIiErq5rKEHj7Oacr8pFUBHM1sRYlkFIesSiXPuCOB1YIdYc1vSiEH050y6pb8wERGRHLKJKs7mlaBwBfCiwlV6ZFXAcs6dBzwFNIo19xA68BJn0pXS9BcmIiKSY67nfSawOGjKSuBPIZVTcOJqdxAG59wteP2tAsOVA66jN2O4WOFKREQkiqHM4MHgpqIG/NLMloRUUsHJ+AqWc64EGARcEGvuDjThOU7jp+ye/sJERERy0AxWcAlvxJp2t5m9E0Y9hSqjm9ydc62A14CjYs09ks68yBl0YLv0FyYiIpKDprGcY/k3y9kQNG0McLSeHEyvjAWsyJOCbwN7xJr7Ww7hfvpRrKahIiIiUU1mKcfzPCspC5q2EjjAzBaFVFbBysgtQudcb+ANoHXQvGIc/+REBnBoOIWJiIjkoM9ZzAk8H+uJQQMuULgKR+gByzl3GPAuBLdab04JQziDn8Ve4BIRESlY41hIPwbzAxWxpt5pZu+GUZOEfIsw3nDVge0YzrkcQPtwChMREclBI5jLKQxhHZtiTR0M/MrMqkMoSwhxBcs51wd4hxjh6kDaM5xz2Umb2UVERKKqxvgbHzOQkVQFnTLoeQ64WOEqXKEErMieq3chODWdzB4M4Uya0TCMskRERHLOUtZzHq/xEXPimf4UcJnCVfjSHrAi4eo9YoSrARzKfZxIkZ4UFBERiep9vuUCXo/VhqHG48AVlo2HDheAtAYs51wv4li5upHDuIvj0lmKiIhIziqnktsYxd2MiX1D0PMwcJXCVeakLWA55w7FW7lqETTv9wpXIiIiURnwAlP5Ex8xnx/ifdt9ZnZtGsuSOKTlKULn3H7AaKBl0Lwb6MM9HJ/yzxcREcl1HzGHG/gfXxD3cYFleKtWT6exLIlTygOWc649MB7oGDTvevpwr8KViIjIFqazgt/zP95mViJvmwr83My+SlNZkqCU3iJ0zjUBhhEjXF1Hb4UrERGROkYyl8eZyCtMj6f1Ql2PAteaWWAbdwlXygKWc87h9do4JGjetfTm75yQqo8VERHJWSsp4zmm8CQT+YbvE337GuASM3stDaVJPaVyBet24KygCdfQi38oXImI5CQDNdJJgWqM0czjCSbyGl9RQVUylxkN/NLM5qW4PEmRlOzBcs6dDzwfNOcC9uPfnFbvzxIRkfAsYwMPMI53mc2XLKcdzehMKZ1oWfvqXOfHpTTOdMlZaSnreZ9veZfZ/I/vWElZspf6BrhJq1bZr94BK3K+4IdAI785h9GRD/kVjSiu12eJiEi4zmEoLzM97vnbURIYwDrQguICWAeroIpPWMB7zOY9vmUKSxPbVbWtpcBA4Ckzq0xBiZJm9QpYzrldgM+A1n5zulLKeC6lNU2T/hwREQnfCOZyDM+l9JrFODrQwjeAdaIlLfy/X89KKyhjMkuZwlKmsIzJLOVrVlJJSk6nWQfcC/zTzOJq3y7ZIek9WJEnBt8kIFy1pBHDOVfhSkQkB81gRcqvWYUxnx8Cm2aW0rg2bO1MC7anMaVbvbanyRb/3JCilNda4wcqWMhaFvBD5Kv34wWsZTrLWcL6dHzsauAZ4C4zS/0vhKRdfTa53w108xssxvEyZ9GNNvX4CBERyZSdgw/iSJs1lLOGcqayLO73NKXhNiGslMY0p4RKqtlMFZsjXzfV+XGsr2upYB2b0vhvu41RwJPAq2q7kNuSukXonDsOeJ+AB0oe4idcSc96lCYiIplUxmbaci8b2JzpUvLdcuBZYJCZJdRdVLJXwmuqzrlSvGVL33D1Ww5RuBIRyXFNacjJ7JnpMvLVSmAIcAaws5ndqHCVX5K5RfgQsLPf4PHswv30S74iERHJGj9nH15iWtCUu4G2QKfIqyOoV0MUVcA44F3gPWCimaVkF7xkp4QClnPuLOA8v/E2NGUwpxfEI7giIoXgJHajlMaswXc70HtmNqLmHyKnetQNXJ2Azlv9cyFszt0EzAAm4AWqD8zMf2e/5J24A5Zzbke88458PcHJtKVZvYsSEZHsUEIxp7EXzzDZb8r+QG3AMm9j77LIa0K0N0SeQg8KYB2BkhT9K4RhOTBlq9fXZqbNawUskRWsp4Ad/AYv5ABOZa/6VyQiIlnlaLoEBax9E72emW3E60j+TbTxyCpYe7ywtSNQGuerBak9zacSbyVqKbAAWBh5Lajzdb6ZrUzhZ0qeiCtgOecuB07yG+9MSx7QvisRkby0L+2ChvdL9edFVsGWRF5xc84V4YWsuqGrBNicxKvSUnGWnBSsmAHLOdcWuMdvvAjHc5yWc513RUQkPnvTmmIcVdEPe+nunCvKhg3bkRrWRF4iGRVPm4Y/Adv5Df6OXhxF59RVJCIiWaUxDdjdf4dIE2C3EMsRyQmBAcs51xm43G98H9pyB8emvCgREcku+9I2eFhEthBrBet2fJ7k8G4NnkojilNflYiIZJWw92GJ5DrfgOWc6w6c7zd+LvvSgx3TUpSIiGSXfYJXsDqGVYdIrgja5H4HPgGshGL+Qt/0VCQiabWAtTzFF4xkLpup5m6O43A6ZbosyXJtaBo0nEs9q0RCETVgOed6Aaf4vekKDqYLpWkrSkTSw4BzeZUxzK/9uSN4hr9zAtfRO3OFSdZrELyjJJlj10Tymt+fmDv93rAdJfyJI9NUjoik05NM3CJc1XieKRmoRnJJw+D9tg3DqkMkV2wTsJxzxwNH+73hevrEWioWkSz1NrOi/vwUlrGE9SFXI7mkoVawRBIS7U/MVX6T29GMa3UbQSRnBYWozVSFWInkGq1giSRmi4DlnNsB/M+8uZmjaK69jCI5azHrfMd0ULsE0QqWSGK2/hNzNj7fibSnOZdxUPorEpG0MGCZzwrWdpTQWH9HSgCtYIkkZuuA5dv36hfsE+s7GBHJYispYzPRj4trR/OQq5FcoxUskcTU/qFwznUF+vhNPF+NeiVJKyljIkv4kmWcTXc60TLTJRWk2azyHdM3TxJLGZuDhl1YdYjkirrfdZznN2lvWqtruyRlEkvpw1OUUwnAbYziDo5hAIdmuLLC8wkLfMe+ZiWr2EgrmoRYkeSS+fwQNLw0rDpEckXdb1t9A9Z5Wr2SJKxjE2fycm24AljPJq7m3cDN1pIeQQHLgFHMC68YyTnzggPWts3VRApcEYBzrgewV7QJDjhPB6VLEl5lBt+xOurYCOaGW4wwNsbfgSP1ayIBYqxgKZ2LbKVmBetsvwmH0UnH4khSXma679jXrAyxEpnNKpaxIXDOO8yiGgupIsk1c3y+WYpQwBLZSk3A6uk3QatXkozVlPMB3/mOK7SH61W+ijlnFqsYxBchVCO5aAKLg4bnhlSGSM6oCVhRbw8CnM7eIZUi+eS/fO3bEgBgD3YIsRoZzNS45t3MCNZSkeZqJNf8QAVfscJvuBwClqtFClSRc64FsFO0wTY0VXdnScpLTAscV8AKzxSWMY3lcc1dzgbu4OM0VyS5ZhwLg24eTzCzwB4OIoWoiIDVq71oHWIpki+GM5P3+TZwTjM1fg7Nv5mS0PwHGMe3wfttpMB8GvAEKvBJWHWI5BIFLEmpVWzkUt6MOa9u6wZJn+/ZyJNMTOg9FVRxKi/xg24VSsTrfB00PDasOkRyiQKWpNSVvM1Sn/Pu6lLACsff+YR1bEr4fdNYzmm8xCaq0lCV5JJpLGcqy/yGDa1giUQVGLD2pk2IpUiuG8qMmHuvasToqSMpsIIyHuSzoCkfgn/vhhHM5UL+q8YNBS7GAxLjzez7sGoRySVawZKUWMp6ruCtuOdPZEkaqxGAuxnDBv/z4wy4Brgz6BpDmMYf+CDVpUmOMOBFvgya8mJIpYjknCKgU7SBxjSgsw7llTisoIwTeJ6VlMX9nonBPXWkniayhAeCV69eNrNpwD14K1m+7mGsniwsUCOYwwLW+g1XAf8JsRyRnFLkN7AdJRTpgHSJYQVlHMtzfBlnG4Aaw5mp/T1pUk4lF/Aalf59yKqB2wAij9efDsGPGv6Zj7iIYfo1KzAxgvWHZua7OUuk0BVB9N3GQU0iRSD5cAXe021v8E0aqpI/8iFfBR9F9JKZ1bZ2N7O1wE+IcWDvs0zmBJ5nFRtTU6hktVHM4yPmBE15IaxaRHJRQMDSd6riL4Fw5Xvf8BEmpLYoYQjTeIBxQVM2AH/e+ifNbDFwEgQ3wBrFPHoxiJloX3O+u4URQcMrgVdDKkUkJ/kGrHIqg24xSAFLIFyNAc7xGxzB3LjOyJP4jGE+F8V+6u86M4u6LGFmM4BTIbgB1ixW0YtB/C/grEnJbf/jO0YHn998t5kFnx4uUuCKIHqDkyqMOawJuRzJdlNYRh+eiidcjcVbEXkL/O8z/I53KfN/0k3iNItVnMpLVASvPL9jZo8HTTCz0XihuDxo3mrKOZHnuYp39OuXZzawmSsYHjRlGfBISOWI5Kwi8N8IM0u3AaSOZ5hMbwYxm1Wxpn4CnGRm683MgMf8Ji5gLVfxTirLLDgzWMGJPM/3wXujVgGXxHM9MxsGHI3PN1+184CHGM9+PMrHwdu3JIdcz/uxjkq608zif2RYpEAVgf8ZCF8Hb5SVArGRSi7hDS5mGBtjd2D/FOhnZuvq/Ny/CFjFeppJ3B+8b0h8DGcmvRgUa7W5GrjIzOJuPmZmnwGHQHCXSYBvWc3RPMu1vBfP7w/JYu/zLY/xedCURUDgKqiIeAJXsGI8QSIFYDar6M0gnmZSPNPHsW24wszKgd8FvfF63uc/TE++0AJ0F2M4hZfiOQrnejN7I9Hrm9l84DAIvl8EUI1xH+M4kMcYx8JEP0qywDI2cDHDYk27NvLnWURiKAIm+w1+xBydGVfAXuMrDuIJpgTfKarxGXBi5JH/bURuO/neC6zC+AVDuZ1RyRVbQMqp5Dxe4498SHXsg2weNrP7kv0sM1sPnALEdY1v+J7DeJrLeJPFrIv9BskKa6ngJAazKPjX7D9m9nJYNYnkOmdmOOfmAx2jTXib8ziJ3UIuSzJpKeu5jvdjHZFR1xDg0lhPFTnnOgATgXZB837BPjzNKTSmQbyfXzAWsY7TeIkJ8XXCHw6camYp6bninDsPeBDYPp75TWnItfTm9xzGdpSkogRJgwqq6MdgRjI3aNoSYB8zi7kBU0Q8NZ3c3/ab8ELsLRiSJ6oxHmYCe/FQvOFqE/BbMzs3nke2zWwRcEbkfb6GMI2jeZalrI+r7kIxmnn05Il4w9VrwNmpClcAZvYCsA/Ed+hkGZv5K6PZlQd4iPFqXpyFqjHO5dVY4Qq8b6AUrkQSULOCdTIQdY9GA4r4jqvpSIuQS5MwTWQJlzOcz+M/I3A+cJaZjU/0s5xzlxHHRtmOtOA1zuFgdkr0I/LKN3zPH/mA1/2fR6nLgL8AAyNPcKaFc+5C4H6I/8DS3WjF3ziWs+iWrrIkAVUYl/FmPPsrB5nZpWHUJJJPagJWE2AxUBpt0rX05h+cEG5lEoofqODPfMQjTIhnP0+N94DzzCzpPh7OuZuAv0LwgZdFOM5lX26nL12j//bMW0tZz0BG8hST4m36WwZcaGavpLk0AJxzOwNPAv0Sed+BtOcGDuMsutHA/zhUSaPVlHMOr8TTLHYscLyZ6XwkkQS5mm9ynXN3An+INqkJDZjCFexOqzBrkzQbwjSu5b1EbsXVHBL8VzOr9/0e59xZwLNA01hzG1LEZRzEzRxFO5rV96Oz2no2cS+f8A8+YUP8TTwXAKeYWVyPe6aSc+7XwD8gsWXuTrTkGnrxa3poj1aIZrCC/gyJ1esKYBpwpJnFnCgi26obsNoB84BG0SYeTidGcSFFwQsOkgM+ZA63MoKxLEjkbcuAX5rZ+6msxTnXAxgG7BzP/GY05Bp6cQOH0TL6b9WctYkqBvEFtzGK5SR0CsmnwGlmFtfjnungnGsDDAQug8SeTmhJIy7nYAZwKDuxXTrKk4g3+IbzeS2e1h7zgD6RMypFJAmu7jYN59xjwG/8Jj9APwZwaBh1SRp8xBwGMjLRrtvVwBPAH80sLWcnOefaA68DveJ9TyuacCk9OJvu9EuQHUUAAAlpSURBVGDHdJQVikqq+Yg5/IfpvM5XrA4+oSaa54DfmFng+YFhcc7tCdyFd6ZhQhpSxLnsy9X04kDap764AlZOJbczirsYE89GgBXA4WY2M+2FieSxrQPWrsBXQMNok5vSkI+5KKf/QitEI5jLrYxI5jiTScDlyWxkT5RzrhEwCDg/0ffuyvacSbecCVvVGKOZx3+YzqvMYAVJnTqyGrjJzHyPIcok59wRwN/xusEnbD/acSEHcB770jbPbwmn25vM5Greifds2RV4x1xNTHNZInnPbf2gkXPuNuAWvzfsSHPG8Ws6xf/wkGTISOZyKyMZzbxE37oOuBl4KJWP+cfDOTcAuANonsz7szVslVPJBBbzCtMZygyWJN+CohyvF9Wd2b43xjnngLOBO4GuyVyjAUX8hN25kAP4GXvQUJvi4zaHNVzNO7xJ3AtRXwL9zWxu+qoSKRzRAlYJXjPIffze1J02jOWSvNsDkw8M7zyxO/mYUYkHK4CXgd9lcu9FZD/Pn4DL8dkTGI9SGnMA7bd4daNN2v+SXksFk1jKJJYwiaV8wRK+ZmW8TwL6qQaeB242s4Q2z2Va5P8p5wPXQfI9GlrTlHPZl1+xf1aF52yzio08wGfcw9hETuL4L3BBpHO/iKTANgELwDl3MN65csV+bzyQ9rzMWeymJwuzwkrKeIbJPM7n8TwdFM23wJVm9l6KS0uac64z3sbpX0JqUlEJxXSjDQfQnv1oRzuasT1NKKUx29M48rUJjXx+669jE6vZyGrKt/i6lPVMjoSp71gdf8OL+LwN/MHM4m6tn40iK1o/Aa4Hjq7PtbpQSn/2pD97ciSdtbKFd27ofYzjWSZTFv/Tp+CtGN+czr5pIoUoasACcM7dgvdIvq/tKOEJTubn/otdkmZjWcCjTGAoM6ggqbt5C4C/AU+bWcxHizLBOdcN7y+BhDdOJ6sxDWpDVyXVrKacNZTXdxUqUeOBG81sZJgfGobIN3E34HX29/1GLh6lNOYkdqM/e3ISuxfcyvrHzOeffMobfJNILzvw+qZdYmYvpak0kYLmG7AAnHPPE8em41/Tg/vpR7Poe+MlxdZSwWCm8hif8yXLk73MAry9MU9la7DamnPuULxbhyeRYCuAHLIG75ibF8zso0wXk27Oua7AtcDFxNEPLZaGFHEUXTiZPTiGrnSnbV42lvmejbzJNzzChHiPTtra+3jHXM1KcWkiEhErYJUA7wDHxLpQJ1pyHydyOnunsDypazyLeIpJvMiXrI/dx8bPQrwVq5wJVltzzrUCTsPbQH0MuR+2NuAdVfUS8G6u/rrUh3Nue+Bc4ELg4FRdt5TG9KEjh9OJw+lET3bK2UPEv2M1w/iGYXzNGOZTldyN6EV4eyxD6fYvUsgCAxaAc64lMIaATe91nciuPMhP1PU9BQz4jIUMZQZDmcE8fqjP5Rby44pVVvRMSgXnXGt+DFt9qeftphBV4H3zMgQYbmZJ9WrIR8657sCvgAsgtQ2xSijmYHbicDpxGB3Zj3Z0pjQrV7mqMSayhGF8zTC+YVryq9UAlcADeGdUaiO7SAhiBiwA51xbYChwRDwXLaGYc9mXARyqhoEJMuATFjCUGbzKDBawtr6XXIy3YjUon4JVNJGnD08HTgYOIsV/OdfTJmA6Xm+xUcAwM6tXYs53zrlivHMOL8T7NU3L5qrmlNCdNnSnLftEXt1pE3pX+TWUM46FfMpCPmUBn7GItaTkj+x7wPVmNi0VFxOR+MQVsKD2f3a34u2BifuRnSPoxAAO5TT2pjgrv0/MvGqMMcyPhKqvWMy6VFz2Y+AxYGgh3nKC2m8M9q/zOgDYi/TfUlwPTMELUzWv6YX665AKkdvCZwGn4N0WTvtO9u1pTDfa0JGWtKMZ7WlOe5rTrvZrM9rSLO4DqzdRxVLWs4wNLGV97WsuaxjHQr5iRSqfPt0EvAD8U8FKJDPiDli1b3DuaLw/uDsl8r5OtOT/6Mml9KAVTRL6zHw0jx8YyVxGMpd3mZ3IgctB1uL1SnrUzKan4oL5JtIxvhte4OoIlOIdUtzS51Wz8Xo93gb0NcAPW32t+fE8YDIwKxWHYUt0zrlmwAlAf+CnQJuM1QK0oBENKKKYIopxW3wtwuHw2qgkcQxSMr4HHgUeNrOlYXygiESXcMCC2n0vj+E9Yp2QJjTgfPZjAIeyD20T/uxctYC1jGBObaiK89iKeE3C+5/qi2aW0CnBEsw51wCwsDvaS3ycc0XAoXhh62Sge2YrypiZwP3As2a2MdPFiEiSAav2zc71A/4F7J7M+w9iR46hK8fQlcPpRHNKkq4l2yxkbW2YGsFcvkuu+WeQjXhd1x81s89SfXGRXOSc2wU4Djgcb89ol4wWlF5fAsPw9vN9nuliRGRL9QpYUHvL5XrgJurRx6YBRRxCB/rShWPoSh865sTj1OVU8jUr+ZLlTIu8vmRZKjanR1MJjMR74ODlbD+LTiTTnHMd8IJWTeDahxSdCpABVXhPdNeEqu8yXI+IBKh3wKq9kHOdgD/gHWvSrL7Xa0Qxvdi5tllgZ1rSmVLa1L8XYVKqMGazqjZE1QSp2axKth9NvDYDHwCvAv81s+/T+WEi+cw5Vwr0wQtc++LdUuwCWfsEzjzgU+BdvHYe+vMvkiNSFrBqL+j1zboEuBLYJaUXx9vD1SkStmpCl/fP3o9LaVy7sdT7uuWP646VU8lyNrCcDaygrM6PN9T+uGZsGeuTPYomGRV4nZaHAm+YWUo3bInIj5xzTYG98R5+6F7naxfCXe2qAL4APsELVZ9m8tB1EamflAes2gt7m09/ClwFHJ+WD8kvG/gxVL1pZinp1SAiyXHONQF2xuunFvRqhdfgtijyirYaVgWsAJb4vBYAU9XKQyR/pC1gbfEhzu0N/BavO3O9bx/miQ3AWLw9VSOBz81scyYLEpHUcM55C+U/vjardYdIYQklYNV+mHf78CK8A6QPJHc3myZjPT8GqlHABDOrzGhFIiIikhahBqwtPtjbbHok3vlxRwP7kV+B63tgAl6YGom3QqVAJSIiUgAyFrC2FjkK40i8sNUX7wmfbH2yp651wAxgWt2XuiiLiIgUrqwJWFtzzu2AF7gOBDoBnSNfd4bQO5Ia3orUQrYMUtOBeZat/xFFREQkI7I2YPmJPJ3Yni1DV82PdwIa4t1qrPtUj99rI7A8jtdKHZUiIiIi8fp/eTAcj7VcSAoAAAAASUVORK5CYII=;" vertex="1" parent="7">
                    <mxGeometry x="570" y="50" width="168.65" height="120" as="geometry"/>
                </mxCell>
                <mxCell id="9" value="&lt;font style=&quot;font-size: 20px;&quot;&gt;API &amp;amp; JSON&lt;/font&gt;" style="text;strokeColor=none;align=center;fillColor=none;html=1;verticalAlign=middle;whiteSpace=wrap;rounded=0;" vertex="1" parent="7">
                    <mxGeometry x="300" y="40" width="160" height="30" as="geometry"/>
                </mxCell>
                <mxCell id="10" value="Weather" style="text;strokeColor=none;align=center;fillColor=none;html=1;verticalAlign=middle;whiteSpace=wrap;rounded=0;" vertex="1" parent="7">
                    <mxGeometry x="31" y="70" width="60" height="30" as="geometry"/>
                </mxCell>
                <mxCell id="12" value="&lt;font style=&quot;font-size: 20px;&quot;&gt;Weather&lt;/font&gt;" style="rounded=1;whiteSpace=wrap;html=1;" vertex="1" parent="7">
                    <mxGeometry x="21" y="100" width="110" height="40" as="geometry"/>
                </mxCell>
            </root>
        </mxGraphModel>
    </diagram>
</mxfile>